<?xml version="1.0" encoding="UTF-8" standalone="no"?>
<!-- Created with Inkscape (http://www.inkscape.org/) -->
<svg id="svg4194" xmlns:rdf="http://www.w3.org/1999/02/22-rdf-syntax-ns#" xmlns="http://www.w3.org/2000/svg" height="501.27" viewBox="0 0 500 501.26981" width="500" version="1.1" xmlns:cc="http://creativecommons.org/ns#" xmlns:dc="http://purl.org/dc/elements/1.1/">
 <metadata id="metadata4200">
  <rdf:RDF>
   <cc:Work rdf:about="">
    <dc:format>image/svg+xml</dc:format>
    <dc:type rdf:resource="http://purl.org/dc/dcmitype/StillImage"/>
    <dc:title/>
   </cc:Work>
  </rdf:RDF>
 </metadata>
 <g id="g4463" transform="translate(-1087.6 -255.01)">
  <path id="path4477" d="m1292.6 410.52v-22.353c0-17.294-0.4198-25.008 0.9028-25.117l32.597 0.019 0.4067-59.656 25.593-33.344 0.5197 93.451 32.48 0.54945 0.2684 23.225-0.1487 23.642 34.966 0.13226 0.8342 345.16-162.78-0.14842c0.1666-89.156-0.2916-256.31-0.8742-345.46zm86.084 257.05h-86.084v20.858l86.334 0.0166zm0-62h-86.088l-0.1559 22.345 86.393 0.15495zm-0.5859-60.5-85.5-0.52349 0.077 23.357 85.417 0.66667zm0-70-85.5-0.52349 0.077 25.357 85.417 0.66667z" fill-opacity=".75294" fill="#ed2a3b"/>
  <path id="path4467" d="m1280.5 755.9-0.5638-255.55h-58.308-58.308v255.67zm-98.767-138.58v-14.349h20.254 20.254l0.3403 13.443c0.1871 7.3934 0.061 13.958-0.2801 14.588-0.4854 0.89611-4.9646 1.0932-20.595 0.90614l-19.974-0.23904zm0-45.655v-14.784h20.254 20.254l0.3393 13.879c0.1868 7.6335 0.06 14.394-0.28 15.023-0.4842 0.89407-4.9775 1.0914-20.594 0.90454l-19.974-0.23904zm0-45.655v-14.349h20.254 20.254l0.3403 13.443c0.1871 7.3935 0.061 13.958-0.2801 14.588-0.4854 0.89611-4.9646 1.0932-20.595 0.90613l-19.974-0.23904z" fill-opacity=".85644" fill="#0526ad"/>
  <path id="path4465" d="m1396.4 756.28s0.4979-75.162 0.6005-163.84l0.1884-161.24h66.85 66.85v161.98 162.82zm54.416-123.16v-25.007h-21.304-21.304l-0.194 24.254c-0.1068 13.34-0.032 24.682 0.165 25.205l42.637 0.55444zm69.054 0v-25.007h-21.304-21.304l-0.1941 24.254c-0.1067 13.34-0.032 24.682 0.165 25.205l42.637 0.55444zm-69.054-79.872v-25.007h-21.304-21.304l-0.194 24.254c-0.1068 13.34-0.032 24.682 0.165 25.205 0.2816 0.74582 4.9132 0.90795 21.498 0.75254l21.139-0.1981zm69.054 0v-25.007h-21.304-21.304l-0.1941 24.254c-0.1067 13.34-0.032 24.682 0.165 25.205l42.637 0.55444zm-69.054-79.872v-25.007h-21.304-21.304l-0.194 24.254c-0.1068 13.34-0.032 24.682 0.165 25.205l42.637 0.55443zm69.054 0v-25.007h-21.304-21.304l-0.1941 24.254c-0.1067 13.34-0.032 24.682 0.165 25.205 0.2817 0.74581 4.9133 0.90794 21.498 0.75253l21.139-0.1981z" fill-opacity=".97030" fill="#26cddd"/>
 </g>
 <rect id="rect5049" height="500" width="500" y="0.000005" x="0.000005" stroke-width="0" fill="none"/>
</svg>
